HIERARCHY
ROOT Hips
{
	OFFSET 2.431263 105.804756 -0.839679
	CHANNELS 6 Xposition Yposition Zposition Xrotation Yrotation Zrotation
	JOINT Chest
	{
		OFFSET 0.137531 13.634666 -0.480727
		CHANNELS 3 Xrotation Yrotation Zrotation
		JOINT Chest2
		{
			OFFSET -0.758626 20.835434 4.937201
			CHANNELS 3 Xrotation Yrotation Zrotation
			JOINT Chest3
			{
				OFFSET -0.339110 14.835098 1.620138
				CHANNELS 3 Xrotation Yrotation Zrotation
				JOINT Neck
				{
					OFFSET 0.303749 17.074753 2.641270
					CHANNELS 3 Xrotation Yrotation Zrotation
					JOINT Head
					{
						OFFSET -0.349011 10.173386 2.491608
						CHANNELS 3 Xrotation Yrotation Zrotation
						End Site
						{
							OFFSET -0.339336 10.190689 2.421244
						}
					}
				}
				JOINT LeftCollar
				{
					OFFSET 4.420043 12.582153 4.894579
					CHANNELS 3 Xrotation Yrotation Zrotation
					JOINT LeftUpArm
					{
						OFFSET 17.385195 -2.464157 -0.426980
						CHANNELS 3 Xrotation Yrotation Zrotation
						JOINT LeftLowArm
						{
							OFFSET -9.520376 -27.884842 16.478081
							CHANNELS 3 Xrotation Yrotation Zrotation
							JOINT LeftHand
							{
								OFFSET -26.144693 -3.896072 14.220522
								CHANNELS 3 Xrotation Yrotation Zrotation
								End Site
								{
									OFFSET -5.714066 -0.851547 3.107986
								}
							}
						}
					}
				}
				JOINT RightCollar
				{
					OFFSET -3.995035 12.737671 4.858006
					CHANNELS 3 Xrotation Yrotation Zrotation
					JOINT RightUpArm
					{
						OFFSET -17.432108 -1.892044 -1.018823
						CHANNELS 3 Xrotation Yrotation Zrotation
						JOINT RightLowArm
						{
							OFFSET 8.635128 -26.898941 18.482868
							CHANNELS 3 Xrotation Yrotation Zrotation
							JOINT RightHand
							{
								OFFSET 15.782438 9.436081 23.724033
								CHANNELS 3 Xrotation Yrotation Zrotation
								End Site
								{
									OFFSET 3.449399 2.062393 5.185116
								}
							}
						}
					}
				}
			}
		}
	}
	JOINT LeftUpLeg
	{
		OFFSET 9.995329 -0.075928 0.711883
		CHANNELS 3 Xrotation Yrotation Zrotation
		JOINT LeftLowLeg
		{
			OFFSET 31.388742 -34.209785 9.403484
			CHANNELS 3 Xrotation Yrotation Zrotation
			JOINT LeftFoot
			{
				OFFSET 12.833176 -39.024334 -17.691181
				CHANNELS 3 Xrotation Yrotation Zrotation
				JOINT LeftToe
				{
					OFFSET 8.792850 -20.412201 8.098589
					CHANNELS 3 Xrotation Yrotation Zrotation
					End Site
					{
						OFFSET 10.027443 -9.186483 19.355045
					}
				}
			}
		}
	}
	JOINT RightUpLeg
	{
		OFFSET -9.995335 0.075729 -0.711877
		CHANNELS 3 Xrotation Yrotation Zrotation
		JOINT RightLowLeg
		{
			OFFSET -30.580753 -34.279556 11.564664
			CHANNELS 3 Xrotation Yrotation Zrotation
			JOINT RightFoot
			{
				OFFSET -11.005363 -38.201012 -20.497440
				CHANNELS 3 Xrotation Yrotation Zrotation
				JOINT RightToe
				{
					OFFSET -12.834560 -18.630081 6.910217
					CHANNELS 3 Xrotation Yrotation Zrotation
					End Site
					{
						OFFSET -12.241829 -7.859276 18.652758
					}
				}
			}
		}
	}
}
MOTION
Frames: 17
Frame Time: 0.033333
3.659902 105.159302 -1.111724 8.334423 2.510357 -0.970595 -16.549422 -0.231281 1.176179 0.853171 0.534249 0.764555 3.206500 -1.424105 -0.709102 -3.620469 2.414680 0.273785 0.000001 0.000001 -0.000000 2.301769 30.194658 -8.772763 23.189968 31.551775 21.132295 6.915161 8.355151 29.443067 0.000003 -0.000003 -0.000006 3.551172 -26.849583 12.576636 24.201288 -35.743951 -21.568657 45.250208 2.654936 -29.298978 0.000001 -0.000001 0.000003 9.984186 -5.404797 -36.646219 -22.199182 -12.624014 16.790268 -10.997689 -19.432710 1.223711 -0.000001 0.000000 0.000000 7.799121 6.437790 37.509999 -23.031145 13.447213 -17.785169 -8.358867 6.090693 4.398138 -0.000004 0.000003 -0.000001 
3.661294 105.164429 -1.111724 8.723653 2.684629 -1.075429 -17.134942 -0.225417 1.243106 0.984333 0.405377 0.868814 3.363325 -1.419935 -0.820956 -3.598148 2.196430 0.306940 0.000001 -0.000000 -0.000000 2.005972 30.412613 -8.715840 23.286406 31.953534 21.075681 7.456321 8.242273 29.519654 0.000003 -0.000006 -0.000005 3.354143 -26.950410 12.584445 24.215391 -36.209193 -21.473403 45.583351 2.674581 -29.339214 0.000001 0.000000 -0.000001 9.673669 -5.379213 -36.527807 -22.225635 -12.475148 16.792853 -11.081328 -19.715594 1.092653 0.000001 -0.000000 0.000001 7.750053 6.430334 37.604518 -23.316830 13.553786 -17.748636 -8.120142 5.993092 4.340201 0.000001 0.000004 0.000003 
3.667710 105.166260 -1.113797 8.467607 2.379174 -1.024791 -16.655047 -0.253550 1.263340 0.744694 0.492765 0.741507 3.343219 -1.026991 -0.629426 -3.736296 2.169159 0.205203 0.000001 -0.000001 0.000000 2.061312 30.249784 -8.858231 23.211565 32.052760 21.209860 7.479774 8.169830 29.665988 0.000003 -0.000006 -0.000005 3.283289 -27.417143 12.640586 24.181684 -36.557891 -21.668217 45.492868 2.921749 -29.408015 -0.000001 0.000004 0.000003 10.001804 -5.358476 -36.570875 -22.569016 -12.532848 16.747549 -10.925484 -19.614584 1.111268 -0.000003 -0.000002 0.000000 8.130614 6.388275 37.585821 -23.623942 13.545967 -17.780232 -7.822008 6.143216 4.379120 0.000003 0.000002 0.000003 
3.670199 105.164543 -1.113775 8.799133 2.510288 -1.059861 -17.111393 -0.236046 1.237440 0.862077 0.388363 0.860275 3.493801 -0.949585 -0.732525 -3.589750 2.094408 0.255127 -0.000000 -0.000000 -0.000000 2.097933 29.640473 -8.834486 23.334759 32.221906 21.044253 7.487234 8.400847 29.528291 0.000000 -0.000005 -0.000003 3.181078 -27.503143 12.573379 24.141235 -36.587582 -21.572408 45.927363 2.757606 -29.314943 -0.000001 -0.000001 0.000001 9.807791 -5.390065 -36.554954 -22.665822 -12.608357 16.721362 -10.866343 -19.677420 1.018795 -0.000001 0.000000 0.000000 7.708272 6.418009 37.571798 -23.416206 13.459091 -17.769101 -7.808072 5.918315 4.128942 0.000005 0.000002 0.000002 
3.667001 105.164101 -1.121227 9.959045 1.670934 -0.870750 -18.218811 -0.137015 0.970304 0.540265 0.671059 0.574898 3.986410 0.522624 -0.197012 -5.179337 1.559320 0.775271 0.000001 0.000001 -0.000000 2.454281 27.620231 -8.821830 23.090484 31.453759 20.748366 7.288842 9.074056 29.953914 0.000001 -0.000007 -0.000000 2.889640 -28.886823 12.322846 24.118496 -36.146427 -21.397625 46.813574 2.226525 -29.480719 0.000002 0.000001 0.000004 8.703936 -5.514524 -36.622218 -22.316765 -12.565091 16.549019 -11.397231 -18.853238 1.830968 -0.000000 0.000002 0.000000 6.661490 6.495078 37.463779 -23.265687 13.663515 -17.923395 -7.916410 6.432236 4.904413 -0.000001 0.000004 0.000002 
3.665883 105.159210 -1.127779 10.168507 1.263663 -0.724028 -18.401660 -0.076474 0.800822 0.624260 0.712145 0.555679 3.730216 1.098370 -0.079456 -5.560302 1.341208 0.954825 -0.000000 -0.000000 -0.000000 2.487712 28.127154 -8.854684 22.730217 30.838277 20.820486 7.497151 8.968687 30.611118 0.000002 -0.000003 0.000000 2.930228 -29.152204 12.260233 24.425796 -36.406346 -21.487090 46.595574 2.465828 -29.712245 -0.000003 -0.000003 0.000001 8.557365 -5.534575 -36.741947 -22.444154 -12.636822 16.486180 -11.577261 -18.581108 2.112679 0.000001 -0.000002 0.000001 6.554319 6.491471 37.345815 -23.392580 13.768256 -17.947384 -7.881471 6.746115 5.276902 -0.000004 0.000007 0.000003 
3.663924 105.154617 -1.137603 10.672869 1.258654 -0.770634 -19.107056 -0.083022 0.864009 1.056220 0.755147 0.533151 3.614740 0.951345 -0.123852 -6.284908 1.368607 0.937122 0.000002 0.000001 0.000000 2.558693 28.193609 -8.783554 22.702236 30.479914 20.697227 7.409117 9.051442 30.887813 0.000004 -0.000005 -0.000003 2.966877 -29.044345 12.102292 24.518026 -36.065946 -21.343356 46.372999 2.451028 -29.718447 0.000001 0.000002 0.000002 7.936064 -5.549904 -36.712366 -22.364244 -12.626577 16.551613 -11.566454 -18.694860 2.047203 -0.000002 0.000000 -0.000001 6.272825 6.522902 37.405254 -23.523093 13.834240 -17.964463 -7.894698 6.982540 5.487777 0.000003 0.000001 0.000003 
3.659454 105.146942 -1.140660 11.131173 0.788574 -0.638591 -19.431422 -0.039928 0.732806 0.342207 0.864713 0.409691 4.276930 1.262725 0.139783 -6.011344 1.385291 0.944465 0.000001 -0.000000 0.000000 2.566227 28.372746 -8.721992 22.807084 30.466807 20.596203 7.494049 8.983750 30.806588 0.000004 -0.000003 -0.000003 2.975968 -29.000123 12.008787 24.457171 -35.898750 -21.356982 46.574117 2.362560 -29.802455 -0.000003 -0.000002 0.000003 7.735168 -5.580831 -36.796790 -22.446476 -12.722670 16.495405 -11.616269 -18.379026 2.239468 0.000002 -0.000001 -0.000003 5.827018 6.539516 37.294643 -23.532698 13.916383 -17.958256 -7.723820 7.170320 5.723147 -0.000001 0.000002 0.000003 
3.651405 105.136940 -1.139112 11.191732 0.710490 -0.499264 -19.675881 0.000464 0.555143 1.195281 0.862142 0.443488 3.564660 1.239629 0.086617 -6.309228 1.362739 0.951081 0.000002 -0.000000 -0.000000 2.673989 28.383821 -8.722489 22.786715 30.204090 20.410690 7.402682 9.279292 30.875983 0.000005 -0.000003 -0.000003 3.007896 -29.049426 12.015372 24.382143 -35.608495 -21.245194 46.890854 2.076903 -29.719519 0.000001 -0.000002 0.000003 7.777147 -5.643281 -36.922766 -22.667825 -13.025440 16.438488 -11.487965 -18.224934 2.278358 -0.000002 -0.000000 -0.000000 5.741343 6.564130 37.218927 -23.349980 13.887419 -18.050561 -7.533647 7.329790 5.810535 -0.000000 0.000000 0.000001 
3.642429 105.126961 -1.140906 10.546385 0.581389 -0.411051 -18.879671 -0.012516 0.482665 1.339096 0.871331 0.454180 3.330276 1.358977 0.095246 -5.924194 1.351189 0.897087 -0.000000 0.000001 -0.000000 3.000063 28.224256 -9.020925 22.470831 29.752273 20.541147 7.047769 9.324573 30.854140 0.000010 -0.000002 -0.000005 3.169466 -29.206459 12.145932 24.345337 -35.352837 -21.364673 46.720765 1.999787 -29.723293 -0.000001 0.000001 0.000003 8.265428 -5.618279 -37.016074 -22.447178 -12.829362 16.475256 -11.598267 -18.102455 2.474278 -0.000000 -0.000001 -0.000001 6.081270 6.507916 37.115603 -23.052933 13.545836 -18.053435 -7.530825 7.474552 5.856499 0.000001 0.000003 -0.000001 
3.634809 105.119896 -1.142267 9.372077 1.250620 -0.581758 -17.625180 -0.112328 0.712647 1.391221 0.685771 0.662593 3.168660 0.084736 -0.383272 -4.743232 1.793268 0.548055 -0.000001 0.000001 0.000000 2.992135 28.861589 -9.056833 22.730444 30.226944 20.719669 6.937107 8.959058 30.500565 0.000003 -0.000004 -0.000000 3.422946 -28.127703 12.203582 24.330935 -35.335874 -21.395253 46.257938 2.316255 -29.588704 0.000001 -0.000001 0.000002 9.514897 -5.493165 -36.910940 -22.687870 -13.029283 16.590277 -11.229540 -18.818677 1.714495 0.000002 -0.000003 -0.000001 7.186213 6.415245 37.234547 -23.002870 13.455309 -17.947854 -7.464195 7.006074 5.263998 0.000001 0.000001 -0.000000 
3.625567 105.110023 -1.142782 8.908148 1.707313 -0.740237 -17.239655 -0.177041 0.900495 1.524829 0.591697 0.750073 2.934328 -0.512280 -0.551697 -3.635882 2.019847 0.188526 0.000002 -0.000001 -0.000000 2.810511 29.475818 -9.002182 22.984324 30.765733 20.685380 7.468301 8.742751 30.451804 0.000006 -0.000003 -0.000002 3.462183 -27.955397 12.445692 24.099045 -35.513569 -21.562508 46.439918 2.216524 -29.589899 -0.000003 0.000001 0.000003 9.979136 -5.414292 -36.753504 -22.856651 -13.130686 16.649295 -10.837728 -19.200601 1.196613 -0.000000 -0.000002 -0.000000 7.493763 6.406241 37.400326 -22.878362 13.251479 -18.007932 -7.487818 6.914657 5.018841 -0.000002 0.000005 0.000001 
3.620522 105.097527 -1.142459 8.852665 2.268258 -0.855857 -17.241040 -0.204082 1.049989 0.993283 0.385807 0.947895 3.328634 -0.706846 -0.843893 -2.982884 2.055109 0.079475 0.000001 -0.000001 -0.000000 2.756700 29.600254 -9.139053 23.072639 31.014007 20.562144 7.788017 8.866218 30.433923 0.000009 -0.000007 -0.000000 3.321276 -28.795063 12.648330 23.772661 -35.632595 -21.698095 46.990701 2.099669 -29.712897 -0.000000 -0.000001 0.000001 9.829170 -5.365223 -36.713592 -22.420760 -12.933598 16.870192 -11.121332 -19.830003 1.010197 0.000001 -0.000004 -0.000001 7.506412 6.347891 37.399377 -22.744137 13.087897 -17.860340 -7.790189 6.801909 4.832953 -0.000000 0.000005 0.000001 
3.611358 105.084099 -1.143799 8.560474 2.177730 -0.851095 -16.750110 -0.222647 1.155295 1.477725 0.342975 0.975071 2.710560 -0.947331 -0.982427 -2.682032 2.247884 -0.230959 0.000002 -0.000000 0.000000 2.699196 29.512329 -9.179149 23.202204 31.238382 20.511915 7.743188 8.966077 30.555172 0.000003 0.000000 -0.000003 3.370506 -27.885963 12.623712 23.832649 -35.519224 -21.457102 46.768156 1.823446 -29.671226 -0.000003 0.000000 -0.000003 10.085079 -5.303049 -36.702684 -22.496249 -12.911052 16.856862 -11.054445 -19.618441 1.102807 0.000000 -0.000003 -0.000001 7.952347 6.310226 37.427709 -23.174403 13.244344 -17.802564 -7.754029 6.937900 4.926897 -0.000002 0.000000 0.000001 
3.598495 105.069939 -1.143052 8.999106 2.373539 -0.849001 -17.646653 -0.223893 1.148371 1.930906 0.365592 0.953353 2.783322 -1.234999 -0.980844 -2.850386 2.343713 -0.293436 -0.000000 -0.000001 0.000000 2.725369 29.353797 -9.000677 23.314747 31.148562 20.423587 7.617314 8.770365 30.353391 0.000005 -0.000005 -0.000003 3.412408 -28.069438 12.667216 23.610005 -35.125180 -21.503099 46.684995 1.767964 -29.720950 -0.000003 0.000003 -0.000000 9.810752 -5.298176 -36.663957 -22.643674 -12.955412 16.828968 -11.020604 -19.823318 0.986308 -0.000000 -0.000002 -0.000000 7.876623 6.308005 37.501488 -23.404526 13.297274 -17.957061 -7.545406 7.080777 4.964069 -0.000003 0.000002 0.000003 
3.587862 105.062424 -1.146878 8.617389 2.286365 -0.802656 -17.106825 -0.213545 1.058001 1.118370 0.372620 0.883326 3.267031 -0.432947 -0.729252 -2.535396 1.930090 -0.155567 0.000001 -0.000000 -0.000000 2.960931 28.716861 -9.190418 23.157555 30.811448 20.577048 7.184749 8.525982 30.572012 0.000005 -0.000007 -0.000002 3.256499 -29.896728 12.785014 23.243648 -34.900884 -21.876170 47.105083 1.689625 -30.339366 -0.000000 0.000000 -0.000000 9.995545 -5.244107 -36.676992 -22.635612 -12.888746 16.799026 -11.107789 -19.772809 1.021035 -0.000003 -0.000005 -0.000003 8.253407 6.262977 37.456887 -23.653927 13.382234 -17.886182 -7.488159 7.265065 5.089198 -0.000000 0.000001 -0.000001 
3.569183 105.039299 -1.140294 8.884586 2.127747 -0.825837 -17.437149 -0.208149 1.081615 1.521382 0.402181 0.867323 2.989041 -0.400950 -0.679885 -2.603376 2.021247 -0.159648 0.000001 0.000000 0.000000 2.661658 29.439242 -8.912277 23.245627 30.794290 20.375901 7.630359 8.408603 30.453952 0.000003 -0.000005 -0.000003 3.066316 -29.997446 12.576009 23.302862 -34.842854 -21.671340 47.643073 1.556416 -30.351042 -0.000004 0.000001 0.000003 9.899167 -5.289967 -36.615087 -22.833114 -13.039501 16.797956 -10.935917 -19.471503 1.079354 -0.000000 -0.000003 -0.000002 8.273619 6.293593 37.568117 -23.891843 13.585385 -17.894537 -7.253432 7.031264 4.932023 0.000003 0.000003 0.000001 
